<svg xmlns="http://www.w3.org/2000/svg" xmlns:xlink="http://www.w3.org/1999/xlink" width="1220" height="1138.0" viewBox="0 0 1220 1138.0" role="img"><title>Q、K、V 的投影与注意力计算</title><style>
:root{--ink:#293b40;--muted:#68767a;--line:#e3e8e8;--q:#4f8fa5;--k:#ca8b4f;--v:#8a74b5;--a:#bb6465;--sans:"PingFang SC","Noto Sans CJK SC","Microsoft YaHei",sans-serif;--serif:"Songti SC","Noto Serif CJK SC",serif}
*{box-sizing:border-box}body{margin:0;background:#fff;color:var(--ink);font:15px/1.75 var(--sans)}main{max-width:1220px;padding:48px 36px 36px;margin:auto}header{max-width:800px;margin:0 0 30px}h1{font:500 36px/1.3 var(--serif);letter-spacing:.02em;margin:0 0 13px}header p{color:var(--muted);margin:0;font-size:15px}.q{color:var(--q);fill:var(--q)}.k{color:var(--k);fill:var(--k)}.v{color:var(--v);fill:var(--v)}
.formula{font:20px/1.7 Georgia,"Times New Roman",var(--serif);display:flex;flex-wrap:wrap;gap:8px 26px;margin:21px 0 0}.formula sub{font-size:65%}.formula span{white-space:nowrap}
.figure{margin:0}.controls{display:flex;flex-wrap:wrap;gap:12px 24px;align-items:center;border-block:1px solid var(--line);padding:15px 0;margin:0 0 14px}.head-picker{display:flex;align-items:center;gap:7px}.head-picker>span{margin-right:6px;font-size:13px;color:var(--muted)}button{font:inherit;cursor:pointer;border:0;background:transparent;color:var(--muted);padding:6px 10px;border-radius:4px;min-width:39px;line-height:1.4}button[aria-pressed=true]{background:#eaf2f4;color:#325e6d}button:hover{background:#f0f5f6}button:focus-visible,.diagram-scroll:focus-visible{outline:2px solid var(--q);outline-offset:4px}.sharing{font-size:13px;color:var(--muted);margin:0}.sharing strong{font-weight:500;color:var(--ink)}
.stage{display:grid;grid-template-columns:170px minmax(0,1fr);gap:34px;align-items:center;padding:16px 0}.stage+.stage{border-top:1px solid var(--line)}.step{font:italic 17px Georgia,serif;color:#87969a}.stage h2{font-size:17px;font-weight:600;line-height:1.5;margin:4px 0 8px}.stage p{font-size:13px;line-height:1.85;color:var(--muted);margin:0}.diagram-scroll{min-width:0;overflow-x:auto;overscroll-behavior-x:contain;scrollbar-width:thin;scrollbar-color:#ccd8dc transparent}.diagram-scroll svg{display:block;width:100%;height:auto;min-width:760px;overflow:visible}svg text{fill:var(--ink);font-family:var(--sans);font-size:15px}.symbol{font-family:Georgia,"Times New Roman",serif;font-size:18px}.shape{fill:var(--muted);font-size:13px}.annotation{font-size:15px}.operation{font-size:16px}.op{font:26px Georgia,serif;fill:#748085}.bracket{fill:none;stroke:#859194;stroke-width:1}.arrow{fill:none;stroke:#8c9291;stroke-width:1.2}.head-divider{stroke:#fff;stroke-width:3}.head-cell{transition:opacity .18s}.head-cell.dim{opacity:.22}svg .q{fill:var(--q)}svg .k{fill:var(--k)}svg .v{fill:var(--v)}
figcaption{border-top:1px solid var(--line);padding-top:20px;margin-top:8px;font-size:12px;color:var(--muted)}.notes{background:#f6f8f8;padding:17px 20px;display:grid;grid-template-columns:40px 1fr;gap:7px 14px;margin:0}.notes dt{font-weight:600;color:#536569}.notes dd{margin:0}.mobile-hint{display:none;font-size:12px;color:var(--muted);margin:0 0 10px}footer{margin-top:17px;font-size:12px;color:var(--muted)}footer a{color:var(--muted);text-underline-offset:4px}noscript p{font-size:13px;color:var(--muted)}
@media(min-width:1000px){.diagram-scroll svg{min-width:0}}
@media(max-width:999px){main{padding:30px 24px}.stage{grid-template-columns:1fr;gap:10px;padding:22px 0}.stage-copy{display:grid;grid-template-columns:26px 150px 1fr;align-items:baseline;gap:10px}.stage h2,.stage p{margin:0}.mobile-hint{display:block}.diagram-scroll svg{min-width:820px}.controls{gap:10px}}
@media(max-width:560px){main{padding:26px 18px}h1{font-size:28px}header p{font-size:14px}.formula{font-size:17px;gap:4px 18px}.head-picker{gap:3px}.sharing{font-size:12px}.stage-copy{grid-template-columns:24px 1fr;gap:4px 10px}.stage-copy p{grid-column:2}.notes{padding:14px;gap:8px 10px}.diagram-scroll svg{min-width:800px}.stage h2{font-size:16px}}
@media(prefers-reduced-motion:reduce){*{transition:none!important}}
@media print{main{padding:0}.controls,footer,.mobile-hint{display:none}.stage{break-inside:avoid;grid-template-columns:150px 1fr;gap:20px}.diagram-scroll{overflow:visible}.diagram-scroll svg{min-width:0}.head-cell.dim{opacity:1}}

html{color-scheme:light;background:#fafbf8}html.embedded{background:transparent;overflow:hidden;scrollbar-gutter:auto}html.embedded body{overflow:hidden}body{background:transparent}main{padding-bottom:22px}header{max-width:100%}.stage-copy{align-self:center}.diagram-scroll svg{overflow:hidden}.formula{font-weight:400}.formula b{font-weight:500}.formula.long{white-space:normal;font-size:19px}.figure-footer{display:flex;gap:22px;flex-wrap:wrap;margin-top:18px;font-size:12px}.figure-footer a{color:var(--muted);text-underline-offset:4px}.operation-node{fill:#f5f8f8;stroke:#d5dfe0;stroke-width:1}.process{font:17px var(--sans)}.process-small{font:14px var(--sans);fill:var(--muted)}.branch{fill:none;stroke:#8c9291;stroke-width:1.2}.dim-path{opacity:.38}.route,.expert,.term-cell,.gradient-path{transition:opacity .15s}.selected-prob{fill:var(--k)}.index-slot{fill:none;stroke:#98a5a8;stroke-width:1}.chart-stage .diagram-scroll img{display:block;width:100%;height:auto;min-width:520px}.chart-stage .diagram-scroll{max-width:100%}.formula .probability{color:var(--q)}.formula .direct{color:var(--v)}.reset-button{font-size:13px;text-decoration:underline;text-underline-offset:3px}.small-label{font-size:12px;color:var(--muted)}button:disabled{opacity:.4;cursor:default}.controls p{flex:1;min-width:200px}.stage-copy p{word-break:normal}.embedded main{padding:16px 0 12px}.embedded h1{font-size:25px}.embedded header>p{font-size:14px}.embedded header{margin-bottom:20px}.embedded .formula{font-size:18px}.embedded .figure-footer{margin-top:14px}.embedded .standalone-link{display:inline}.standalone-link{display:none}.embedded figcaption{font-size:12px}.embedded .notes{padding:14px}.figure-gallery{max-width:1000px;margin:auto;padding:40px 24px}.figure-gallery h1{font-size:30px}.figure-gallery li{margin:12px 0}.figure-gallery a{color:var(--q)}
@media(max-width:999px){.diagram-scroll svg{min-width:760px}.stage-copy{grid-template-columns:34px 155px 1fr}.stage{gap:14px}.stage p{font-size:14px}.mobile-hint{display:none}}
@media(max-width:759px){.mobile-hint{display:block}.stage-copy{grid-template-columns:30px 1fr}.stage-copy p{grid-column:2}.embedded .formula{font-size:16px}.embedded .controls{gap:12px}.embedded .sharing{flex-basis:100%}.embedded h1{font-size:23px}.notes{grid-template-columns:32px 1fr}.formula.long{font-size:16px}.chart-stage .diagram-scroll img{min-width:540px}}
@media print{body{background:white}.figure-footer{display:none}}
svg .shape{font-size:15px}svg .symbol{font-size:20px}svg .annotation{font-size:16px}svg .operation{font-size:17px}.formula.long{display:block;max-width:100%;overflow-x:auto;overflow-y:hidden;padding:4px 0}.formula.long>span+span{margin-left:1.2em}</style><rect width="1220" height="100%" fill="#fafbf8"/><text style="font-size:28px;font-weight:500" x="34" y="48" text-anchor="start" class="">Q、K、V 的投影与注意力计算</text><text x="34" y="81" text-anchor="start" class="shape">以包含 4 个 Query 头和 2 个 KV 头的 GQA 为例，展示各步的张量形状。</text><path d="M34,110H1186" stroke="#e3e8e8"/><text x="34" y="150" text-anchor="start" class="shape">01</text><text x="34" y="181" text-anchor="start" class="operation">投影与拆头</text><text x="34" y="217" text-anchor="start" class="shape">输入分别投影为 Q、K、V，</text><text x="34" y="242" text-anchor="start" class="shape">再按每头宽度拆分。</text><svg x="286" y="120" width="900" height="224.0" viewBox="0 0 900 224"><defs><marker id="tip" viewBox="0 0 8 8" refX="7" refY="4" markerWidth="7" markerHeight="7" orient="auto"><path d="M1 1L7 4L1 7" fill="none" stroke="#8c9291" stroke-width="1.2"/></marker></defs><g class="matrix" data-rows="3" data-cols="8"><rect x="23" y="59" width="14" height="14" rx="1.5" fill="#85898f" fill-opacity="0.42"/><rect x="39" y="59" width="14" height="14" rx="1.5" fill="#85898f" fill-opacity="0.65"/><rect x="55" y="59" width="14" height="14" rx="1.5" fill="#85898f" fill-opacity="0.86"/><rect x="71" y="59" width="14" height="14" rx="1.5" fill="#85898f" fill-opacity="0.65"/><rect x="87" y="59" width="14" height="14" rx="1.5" fill="#85898f" fill-opacity="0.42"/><rect x="103" y="59" width="14" height="14" rx="1.5" fill="#85898f" fill-opacity="0.86"/><rect x="119" y="59" width="14" height="14" rx="1.5" fill="#85898f" fill-opacity="0.86"/><rect x="135" y="59" width="14" height="14" rx="1.5" fill="#85898f" fill-opacity="0.86"/><rect x="23" y="75" width="14" height="14" rx="1.5" fill="#85898f" fill-opacity="0.86"/><rect x="39" y="75" width="14" height="14" rx="1.5" fill="#85898f" fill-opacity="0.86"/><rect x="55" y="75" width="14" height="14" rx="1.5" fill="#85898f" fill-opacity="0.42"/><rect x="71" y="75" width="14" height="14" rx="1.5" fill="#85898f" fill-opacity="0.65"/><rect x="87" y="75" width="14" height="14" rx="1.5" fill="#85898f" fill-opacity="0.42"/><rect x="103" y="75" width="14" height="14" rx="1.5" fill="#85898f" fill-opacity="0.42"/><rect x="119" y="75" width="14" height="14" rx="1.5" fill="#85898f" fill-opacity="0.42"/><rect x="135" y="75" width="14" height="14" rx="1.5" fill="#85898f" fill-opacity="0.65"/><rect x="23" y="91" width="14" height="14" rx="1.5" fill="#85898f" fill-opacity="0.86"/><rect x="39" y="91" width="14" height="14" rx="1.5" fill="#85898f" fill-opacity="0.86"/><rect x="55" y="91" width="14" height="14" rx="1.5" fill="#85898f" fill-opacity="0.65"/><rect x="71" y="91" width="14" height="14" rx="1.5" fill="#85898f" fill-opacity="0.86"/><rect x="87" y="91" width="14" height="14" rx="1.5" fill="#85898f" fill-opacity="0.86"/><rect x="103" y="91" width="14" height="14" rx="1.5" fill="#85898f" fill-opacity="0.42"/><rect x="119" y="91" width="14" height="14" rx="1.5" fill="#85898f" fill-opacity="0.86"/><rect x="135" y="91" width="14" height="14" rx="1.5" fill="#85898f" fill-opacity="0.42"/><path class="bracket" d="M19,58h-4v48h4 M153,58h4v48h-4"/><text x="86" y="135" text-anchor="middle" class="symbol">X</text><text x="86" y="158" text-anchor="middle" class="shape">3 × 8</text></g><text x="184" y="91" text-anchor="middle" class="op">×</text><g class="matrix" data-rows="8" data-cols="8"><rect x="223" y="19" width="14" height="14" rx="1.5" fill="#4f8fa5" fill-opacity="0.42"/><rect x="239" y="19" width="14" height="14" rx="1.5" fill="#4f8fa5" fill-opacity="0.65"/><rect x="255" y="19" width="14" height="14" rx="1.5" fill="#4f8fa5" fill-opacity="0.86"/><rect x="271" y="19" width="14" height="14" rx="1.5" fill="#4f8fa5" fill-opacity="0.65"/><rect x="287" y="19" width="14" height="14" rx="1.5" fill="#4f8fa5" fill-opacity="0.42"/><rect x="303" y="19" width="14" height="14" rx="1.5" fill="#4f8fa5" fill-opacity="0.86"/><rect x="319" y="19" width="14" height="14" rx="1.5" fill="#4f8fa5" fill-opacity="0.86"/><rect x="335" y="19" width="14" height="14" rx="1.5" fill="#4f8fa5" fill-opacity="0.86"/><rect x="223" y="35" width="14" height="14" rx="1.5" fill="#4f8fa5" fill-opacity="0.86"/><rect x="239" y="35" width="14" height="14" rx="1.5" fill="#4f8fa5" fill-opacity="0.86"/><rect x="255" y="35" width="14" height="14" rx="1.5" fill="#4f8fa5" fill-opacity="0.42"/><rect x="271" y="35" width="14" height="14" rx="1.5" fill="#4f8fa5" fill-opacity="0.65"/><rect x="287" y="35" width="14" height="14" rx="1.5" fill="#4f8fa5" fill-opacity="0.42"/><rect x="303" y="35" width="14" height="14" rx="1.5" fill="#4f8fa5" fill-opacity="0.42"/><rect x="319" y="35" width="14" height="14" rx="1.5" fill="#4f8fa5" fill-opacity="0.42"/><rect x="335" y="35" width="14" height="14" rx="1.5" fill="#4f8fa5" fill-opacity="0.65"/><rect x="223" y="51" width="14" height="14" rx="1.5" fill="#4f8fa5" fill-opacity="0.86"/><rect x="239" y="51" width="14" height="14" rx="1.5" fill="#4f8fa5" fill-opacity="0.86"/><rect x="255" y="51" width="14" height="14" rx="1.5" fill="#4f8fa5" fill-opacity="0.65"/><rect x="271" y="51" width="14" height="14" rx="1.5" fill="#4f8fa5" fill-opacity="0.86"/><rect x="287" y="51" width="14" height="14" rx="1.5" fill="#4f8fa5" fill-opacity="0.86"/><rect x="303" y="51" width="14" height="14" rx="1.5" fill="#4f8fa5" fill-opacity="0.42"/><rect x="319" y="51" width="14" height="14" rx="1.5" fill="#4f8fa5" fill-opacity="0.86"/><rect x="335" y="51" width="14" height="14" rx="1.5" fill="#4f8fa5" fill-opacity="0.42"/><rect x="223" y="67" width="14" height="14" rx="1.5" fill="#4f8fa5" fill-opacity="0.65"/><rect x="239" y="67" width="14" height="14" rx="1.5" fill="#4f8fa5" fill-opacity="0.65"/><rect x="255" y="67" width="14" height="14" rx="1.5" fill="#4f8fa5" fill-opacity="0.65"/><rect x="271" y="67" width="14" height="14" rx="1.5" fill="#4f8fa5" fill-opacity="0.65"/><rect x="287" y="67" width="14" height="14" rx="1.5" fill="#4f8fa5" fill-opacity="0.86"/><rect x="303" y="67" width="14" height="14" rx="1.5" fill="#4f8fa5" fill-opacity="0.42"/><rect x="319" y="67" width="14" height="14" rx="1.5" fill="#4f8fa5" fill-opacity="0.42"/><rect x="335" y="67" width="14" height="14" rx="1.5" fill="#4f8fa5" fill-opacity="0.86"/><rect x="223" y="83" width="14" height="14" rx="1.5" fill="#4f8fa5" fill-opacity="0.65"/><rect x="239" y="83" width="14" height="14" rx="1.5" fill="#4f8fa5" fill-opacity="0.65"/><rect x="255" y="83" width="14" height="14" rx="1.5" fill="#4f8fa5" fill-opacity="0.42"/><rect x="271" y="83" width="14" height="14" rx="1.5" fill="#4f8fa5" fill-opacity="0.86"/><rect x="287" y="83" width="14" height="14" rx="1.5" fill="#4f8fa5" fill-opacity="0.42"/><rect x="303" y="83" width="14" height="14" rx="1.5" fill="#4f8fa5" fill-opacity="0.86"/><rect x="319" y="83" width="14" height="14" rx="1.5" fill="#4f8fa5" fill-opacity="0.86"/><rect x="335" y="83" width="14" height="14" rx="1.5" fill="#4f8fa5" fill-opacity="0.86"/><rect x="223" y="99" width="14" height="14" rx="1.5" fill="#4f8fa5" fill-opacity="0.65"/><rect x="239" y="99" width="14" height="14" rx="1.5" fill="#4f8fa5" fill-opacity="0.42"/><rect x="255" y="99" width="14" height="14" rx="1.5" fill="#4f8fa5" fill-opacity="0.65"/><rect x="271" y="99" width="14" height="14" rx="1.5" fill="#4f8fa5" fill-opacity="0.42"/><rect x="287" y="99" width="14" height="14" rx="1.5" fill="#4f8fa5" fill-opacity="0.86"/><rect x="303" y="99" width="14" height="14" rx="1.5" fill="#4f8fa5" fill-opacity="0.65"/><rect x="319" y="99" width="14" height="14" rx="1.5" fill="#4f8fa5" fill-opacity="0.86"/><rect x="335" y="99" width="14" height="14" rx="1.5" fill="#4f8fa5" fill-opacity="0.42"/><rect x="223" y="115" width="14" height="14" rx="1.5" fill="#4f8fa5" fill-opacity="0.86"/><rect x="239" y="115" width="14" height="14" rx="1.5" fill="#4f8fa5" fill-opacity="0.86"/><rect x="255" y="115" width="14" height="14" rx="1.5" fill="#4f8fa5" fill-opacity="0.65"/><rect x="271" y="115" width="14" height="14" rx="1.5" fill="#4f8fa5" fill-opacity="0.65"/><rect x="287" y="115" width="14" height="14" rx="1.5" fill="#4f8fa5" fill-opacity="0.65"/><rect x="303" y="115" width="14" height="14" rx="1.5" fill="#4f8fa5" fill-opacity="0.65"/><rect x="319" y="115" width="14" height="14" rx="1.5" fill="#4f8fa5" fill-opacity="0.65"/><rect x="335" y="115" width="14" height="14" rx="1.5" fill="#4f8fa5" fill-opacity="0.86"/><rect x="223" y="131" width="14" height="14" rx="1.5" fill="#4f8fa5" fill-opacity="0.65"/><rect x="239" y="131" width="14" height="14" rx="1.5" fill="#4f8fa5" fill-opacity="0.65"/><rect x="255" y="131" width="14" height="14" rx="1.5" fill="#4f8fa5" fill-opacity="0.42"/><rect x="271" y="131" width="14" height="14" rx="1.5" fill="#4f8fa5" fill-opacity="0.65"/><rect x="287" y="131" width="14" height="14" rx="1.5" fill="#4f8fa5" fill-opacity="0.65"/><rect x="303" y="131" width="14" height="14" rx="1.5" fill="#4f8fa5" fill-opacity="0.65"/><rect x="319" y="131" width="14" height="14" rx="1.5" fill="#4f8fa5" fill-opacity="0.65"/><rect x="335" y="131" width="14" height="14" rx="1.5" fill="#4f8fa5" fill-opacity="0.65"/></g><text x="286" y="175" text-anchor="middle" class="symbol q">W<tspan baseline-shift="sub" font-size="12">Q</tspan></text><g class="matrix" data-rows="8" data-cols="4"><rect x="351" y="19" width="14" height="14" rx="1.5" fill="#ca8b4f" fill-opacity="0.42"/><rect x="367" y="19" width="14" height="14" rx="1.5" fill="#ca8b4f" fill-opacity="0.65"/><rect x="383" y="19" width="14" height="14" rx="1.5" fill="#ca8b4f" fill-opacity="0.86"/><rect x="399" y="19" width="14" height="14" rx="1.5" fill="#ca8b4f" fill-opacity="0.65"/><rect x="351" y="35" width="14" height="14" rx="1.5" fill="#ca8b4f" fill-opacity="0.86"/><rect x="367" y="35" width="14" height="14" rx="1.5" fill="#ca8b4f" fill-opacity="0.86"/><rect x="383" y="35" width="14" height="14" rx="1.5" fill="#ca8b4f" fill-opacity="0.42"/><rect x="399" y="35" width="14" height="14" rx="1.5" fill="#ca8b4f" fill-opacity="0.65"/><rect x="351" y="51" width="14" height="14" rx="1.5" fill="#ca8b4f" fill-opacity="0.86"/><rect x="367" y="51" width="14" height="14" rx="1.5" fill="#ca8b4f" fill-opacity="0.86"/><rect x="383" y="51" width="14" height="14" rx="1.5" fill="#ca8b4f" fill-opacity="0.65"/><rect x="399" y="51" width="14" height="14" rx="1.5" fill="#ca8b4f" fill-opacity="0.86"/><rect x="351" y="67" width="14" height="14" rx="1.5" fill="#ca8b4f" fill-opacity="0.65"/><rect x="367" y="67" width="14" height="14" rx="1.5" fill="#ca8b4f" fill-opacity="0.65"/><rect x="383" y="67" width="14" height="14" rx="1.5" fill="#ca8b4f" fill-opacity="0.65"/><rect x="399" y="67" width="14" height="14" rx="1.5" fill="#ca8b4f" fill-opacity="0.65"/><rect x="351" y="83" width="14" height="14" rx="1.5" fill="#ca8b4f" fill-opacity="0.65"/><rect x="367" y="83" width="14" height="14" rx="1.5" fill="#ca8b4f" fill-opacity="0.65"/><rect x="383" y="83" width="14" height="14" rx="1.5" fill="#ca8b4f" fill-opacity="0.42"/><rect x="399" y="83" width="14" height="14" rx="1.5" fill="#ca8b4f" fill-opacity="0.86"/><rect x="351" y="99" width="14" height="14" rx="1.5" fill="#ca8b4f" fill-opacity="0.65"/><rect x="367" y="99" width="14" height="14" rx="1.5" fill="#ca8b4f" fill-opacity="0.42"/><rect x="383" y="99" width="14" height="14" rx="1.5" fill="#ca8b4f" fill-opacity="0.65"/><rect x="399" y="99" width="14" height="14" rx="1.5" fill="#ca8b4f" fill-opacity="0.42"/><rect x="351" y="115" width="14" height="14" rx="1.5" fill="#ca8b4f" fill-opacity="0.86"/><rect x="367" y="115" width="14" height="14" rx="1.5" fill="#ca8b4f" fill-opacity="0.86"/><rect x="383" y="115" width="14" height="14" rx="1.5" fill="#ca8b4f" fill-opacity="0.65"/><rect x="399" y="115" width="14" height="14" rx="1.5" fill="#ca8b4f" fill-opacity="0.65"/><rect x="351" y="131" width="14" height="14" rx="1.5" fill="#ca8b4f" fill-opacity="0.65"/><rect x="367" y="131" width="14" height="14" rx="1.5" fill="#ca8b4f" fill-opacity="0.65"/><rect x="383" y="131" width="14" height="14" rx="1.5" fill="#ca8b4f" fill-opacity="0.42"/><rect x="399" y="131" width="14" height="14" rx="1.5" fill="#ca8b4f" fill-opacity="0.65"/></g><text x="382" y="175" text-anchor="middle" class="symbol k">W<tspan baseline-shift="sub" font-size="12">K</tspan></text><g class="matrix" data-rows="8" data-cols="4"><rect x="415" y="19" width="14" height="14" rx="1.5" fill="#8a74b5" fill-opacity="0.42"/><rect x="431" y="19" width="14" height="14" rx="1.5" fill="#8a74b5" fill-opacity="0.65"/><rect x="447" y="19" width="14" height="14" rx="1.5" fill="#8a74b5" fill-opacity="0.86"/><rect x="463" y="19" width="14" height="14" rx="1.5" fill="#8a74b5" fill-opacity="0.65"/><rect x="415" y="35" width="14" height="14" rx="1.5" fill="#8a74b5" fill-opacity="0.86"/><rect x="431" y="35" width="14" height="14" rx="1.5" fill="#8a74b5" fill-opacity="0.86"/><rect x="447" y="35" width="14" height="14" rx="1.5" fill="#8a74b5" fill-opacity="0.42"/><rect x="463" y="35" width="14" height="14" rx="1.5" fill="#8a74b5" fill-opacity="0.65"/><rect x="415" y="51" width="14" height="14" rx="1.5" fill="#8a74b5" fill-opacity="0.86"/><rect x="431" y="51" width="14" height="14" rx="1.5" fill="#8a74b5" fill-opacity="0.86"/><rect x="447" y="51" width="14" height="14" rx="1.5" fill="#8a74b5" fill-opacity="0.65"/><rect x="463" y="51" width="14" height="14" rx="1.5" fill="#8a74b5" fill-opacity="0.86"/><rect x="415" y="67" width="14" height="14" rx="1.5" fill="#8a74b5" fill-opacity="0.65"/><rect x="431" y="67" width="14" height="14" rx="1.5" fill="#8a74b5" fill-opacity="0.65"/><rect x="447" y="67" width="14" height="14" rx="1.5" fill="#8a74b5" fill-opacity="0.65"/><rect x="463" y="67" width="14" height="14" rx="1.5" fill="#8a74b5" fill-opacity="0.65"/><rect x="415" y="83" width="14" height="14" rx="1.5" fill="#8a74b5" fill-opacity="0.65"/><rect x="431" y="83" width="14" height="14" rx="1.5" fill="#8a74b5" fill-opacity="0.65"/><rect x="447" y="83" width="14" height="14" rx="1.5" fill="#8a74b5" fill-opacity="0.42"/><rect x="463" y="83" width="14" height="14" rx="1.5" fill="#8a74b5" fill-opacity="0.86"/><rect x="415" y="99" width="14" height="14" rx="1.5" fill="#8a74b5" fill-opacity="0.65"/><rect x="431" y="99" width="14" height="14" rx="1.5" fill="#8a74b5" fill-opacity="0.42"/><rect x="447" y="99" width="14" height="14" rx="1.5" fill="#8a74b5" fill-opacity="0.65"/><rect x="463" y="99" width="14" height="14" rx="1.5" fill="#8a74b5" fill-opacity="0.42"/><rect x="415" y="115" width="14" height="14" rx="1.5" fill="#8a74b5" fill-opacity="0.86"/><rect x="431" y="115" width="14" height="14" rx="1.5" fill="#8a74b5" fill-opacity="0.86"/><rect x="447" y="115" width="14" height="14" rx="1.5" fill="#8a74b5" fill-opacity="0.65"/><rect x="463" y="115" width="14" height="14" rx="1.5" fill="#8a74b5" fill-opacity="0.65"/><rect x="415" y="131" width="14" height="14" rx="1.5" fill="#8a74b5" fill-opacity="0.65"/><rect x="431" y="131" width="14" height="14" rx="1.5" fill="#8a74b5" fill-opacity="0.65"/><rect x="447" y="131" width="14" height="14" rx="1.5" fill="#8a74b5" fill-opacity="0.42"/><rect x="463" y="131" width="14" height="14" rx="1.5" fill="#8a74b5" fill-opacity="0.65"/></g><text x="446" y="175" text-anchor="middle" class="symbol v">W<tspan baseline-shift="sub" font-size="12">V</tspan></text><path class="bracket" d="M219,18h-4v128h4 M481,18h4v128h-4"/><text x="350" y="203" text-anchor="middle" class="shape">8 × (8 + 4 + 4)</text><path class="arrow" d="M509,82H554" marker-end="url(#tip)"/><g class="matrix" data-rows="3" data-cols="8"><rect x="595" y="59" width="14" height="14" rx="1.5" fill="#4f8fa5" fill-opacity="0.42" class="head-cell q-head" data-head="1"/><rect x="611" y="59" width="14" height="14" rx="1.5" fill="#4f8fa5" fill-opacity="0.65" class="head-cell q-head" data-head="1"/><rect x="627" y="59" width="14" height="14" rx="1.5" fill="#4f8fa5" fill-opacity="0.86" class="head-cell q-head" data-head="2"/><rect x="643" y="59" width="14" height="14" rx="1.5" fill="#4f8fa5" fill-opacity="0.65" class="head-cell q-head" data-head="2"/><rect x="659" y="59" width="14" height="14" rx="1.5" fill="#4f8fa5" fill-opacity="0.42" class="head-cell q-head" data-head="3"/><rect x="675" y="59" width="14" height="14" rx="1.5" fill="#4f8fa5" fill-opacity="0.86" class="head-cell q-head" data-head="3"/><rect x="691" y="59" width="14" height="14" rx="1.5" fill="#4f8fa5" fill-opacity="0.86" class="head-cell q-head" data-head="4"/><rect x="707" y="59" width="14" height="14" rx="1.5" fill="#4f8fa5" fill-opacity="0.86" class="head-cell q-head" data-head="4"/><rect x="595" y="75" width="14" height="14" rx="1.5" fill="#4f8fa5" fill-opacity="0.86" class="head-cell q-head" data-head="1"/><rect x="611" y="75" width="14" height="14" rx="1.5" fill="#4f8fa5" fill-opacity="0.86" class="head-cell q-head" data-head="1"/><rect x="627" y="75" width="14" height="14" rx="1.5" fill="#4f8fa5" fill-opacity="0.42" class="head-cell q-head" data-head="2"/><rect x="643" y="75" width="14" height="14" rx="1.5" fill="#4f8fa5" fill-opacity="0.65" class="head-cell q-head" data-head="2"/><rect x="659" y="75" width="14" height="14" rx="1.5" fill="#4f8fa5" fill-opacity="0.42" class="head-cell q-head" data-head="3"/><rect x="675" y="75" width="14" height="14" rx="1.5" fill="#4f8fa5" fill-opacity="0.42" class="head-cell q-head" data-head="3"/><rect x="691" y="75" width="14" height="14" rx="1.5" fill="#4f8fa5" fill-opacity="0.42" class="head-cell q-head" data-head="4"/><rect x="707" y="75" width="14" height="14" rx="1.5" fill="#4f8fa5" fill-opacity="0.65" class="head-cell q-head" data-head="4"/><rect x="595" y="91" width="14" height="14" rx="1.5" fill="#4f8fa5" fill-opacity="0.86" class="head-cell q-head" data-head="1"/><rect x="611" y="91" width="14" height="14" rx="1.5" fill="#4f8fa5" fill-opacity="0.86" class="head-cell q-head" data-head="1"/><rect x="627" y="91" width="14" height="14" rx="1.5" fill="#4f8fa5" fill-opacity="0.65" class="head-cell q-head" data-head="2"/><rect x="643" y="91" width="14" height="14" rx="1.5" fill="#4f8fa5" fill-opacity="0.86" class="head-cell q-head" data-head="2"/><rect x="659" y="91" width="14" height="14" rx="1.5" fill="#4f8fa5" fill-opacity="0.86" class="head-cell q-head" data-head="3"/><rect x="675" y="91" width="14" height="14" rx="1.5" fill="#4f8fa5" fill-opacity="0.42" class="head-cell q-head" data-head="3"/><rect x="691" y="91" width="14" height="14" rx="1.5" fill="#4f8fa5" fill-opacity="0.86" class="head-cell q-head" data-head="4"/><rect x="707" y="91" width="14" height="14" rx="1.5" fill="#4f8fa5" fill-opacity="0.42" class="head-cell q-head" data-head="4"/><text x="658" y="135" text-anchor="middle" class="symbol">Q</text><text x="658" y="158" text-anchor="middle" class="shape">3 × 8</text></g><path d="M626,55v54" class="head-divider"/><path d="M658,55v54" class="head-divider"/><path d="M690,55v54" class="head-divider"/><g class="matrix" data-rows="3" data-cols="4"><rect x="723" y="59" width="14" height="14" rx="1.5" fill="#ca8b4f" fill-opacity="0.42" class="head-cell k-head" data-head="1"/><rect x="739" y="59" width="14" height="14" rx="1.5" fill="#ca8b4f" fill-opacity="0.65" class="head-cell k-head" data-head="1"/><rect x="755" y="59" width="14" height="14" rx="1.5" fill="#ca8b4f" fill-opacity="0.86" class="head-cell k-head" data-head="2"/><rect x="771" y="59" width="14" height="14" rx="1.5" fill="#ca8b4f" fill-opacity="0.65" class="head-cell k-head" data-head="2"/><rect x="723" y="75" width="14" height="14" rx="1.5" fill="#ca8b4f" fill-opacity="0.86" class="head-cell k-head" data-head="1"/><rect x="739" y="75" width="14" height="14" rx="1.5" fill="#ca8b4f" fill-opacity="0.86" class="head-cell k-head" data-head="1"/><rect x="755" y="75" width="14" height="14" rx="1.5" fill="#ca8b4f" fill-opacity="0.42" class="head-cell k-head" data-head="2"/><rect x="771" y="75" width="14" height="14" rx="1.5" fill="#ca8b4f" fill-opacity="0.65" class="head-cell k-head" data-head="2"/><rect x="723" y="91" width="14" height="14" rx="1.5" fill="#ca8b4f" fill-opacity="0.86" class="head-cell k-head" data-head="1"/><rect x="739" y="91" width="14" height="14" rx="1.5" fill="#ca8b4f" fill-opacity="0.86" class="head-cell k-head" data-head="1"/><rect x="755" y="91" width="14" height="14" rx="1.5" fill="#ca8b4f" fill-opacity="0.65" class="head-cell k-head" data-head="2"/><rect x="771" y="91" width="14" height="14" rx="1.5" fill="#ca8b4f" fill-opacity="0.86" class="head-cell k-head" data-head="2"/><text x="754" y="135" text-anchor="middle" class="symbol">K</text><text x="754" y="158" text-anchor="middle" class="shape">3 × 4</text></g><path d="M754,55v54" class="head-divider"/><g class="matrix" data-rows="3" data-cols="4"><rect x="787" y="59" width="14" height="14" rx="1.5" fill="#8a74b5" fill-opacity="0.42" class="head-cell v-head" data-head="1"/><rect x="803" y="59" width="14" height="14" rx="1.5" fill="#8a74b5" fill-opacity="0.65" class="head-cell v-head" data-head="1"/><rect x="819" y="59" width="14" height="14" rx="1.5" fill="#8a74b5" fill-opacity="0.86" class="head-cell v-head" data-head="2"/><rect x="835" y="59" width="14" height="14" rx="1.5" fill="#8a74b5" fill-opacity="0.65" class="head-cell v-head" data-head="2"/><rect x="787" y="75" width="14" height="14" rx="1.5" fill="#8a74b5" fill-opacity="0.86" class="head-cell v-head" data-head="1"/><rect x="803" y="75" width="14" height="14" rx="1.5" fill="#8a74b5" fill-opacity="0.86" class="head-cell v-head" data-head="1"/><rect x="819" y="75" width="14" height="14" rx="1.5" fill="#8a74b5" fill-opacity="0.42" class="head-cell v-head" data-head="2"/><rect x="835" y="75" width="14" height="14" rx="1.5" fill="#8a74b5" fill-opacity="0.65" class="head-cell v-head" data-head="2"/><rect x="787" y="91" width="14" height="14" rx="1.5" fill="#8a74b5" fill-opacity="0.86" class="head-cell v-head" data-head="1"/><rect x="803" y="91" width="14" height="14" rx="1.5" fill="#8a74b5" fill-opacity="0.86" class="head-cell v-head" data-head="1"/><rect x="819" y="91" width="14" height="14" rx="1.5" fill="#8a74b5" fill-opacity="0.65" class="head-cell v-head" data-head="2"/><rect x="835" y="91" width="14" height="14" rx="1.5" fill="#8a74b5" fill-opacity="0.86" class="head-cell v-head" data-head="2"/><text x="818" y="135" text-anchor="middle" class="symbol">V</text><text x="818" y="158" text-anchor="middle" class="shape">3 × 4</text></g><path d="M818,55v54" class="head-divider"/><path class="bracket" d="M591,58h-4v48h4 M853,58h4v48h-4"/><text x="722" y="203" text-anchor="middle" class="shape">每 2 列拆为一个头</text></svg><path d="M34,369.0H1186" stroke="#e3e8e8"/><text x="34" y="409.0" text-anchor="start" class="shape">02</text><text x="34" y="440.0" text-anchor="start" class="operation">注意力概率</text><text x="34" y="476.0" text-anchor="start" class="shape">Q 与 K 的匹配分数经缩放、</text><text x="34" y="501.0" text-anchor="start" class="shape">因果遮罩和 softmax 转为概</text><text x="34" y="526.0" text-anchor="start" class="shape">率。</text><svg x="286" y="379.0" width="900" height="160.0" viewBox="0 0 900 160"><defs><marker id="tip" viewBox="0 0 8 8" refX="7" refY="4" markerWidth="7" markerHeight="7" orient="auto"><path d="M1 1L7 4L1 7" fill="none" stroke="#8c9291" stroke-width="1.2"/></marker></defs><g class="matrix" data-rows="3" data-cols="2"><rect x="23" y="45" width="14" height="14" rx="1.5" fill="#4f8fa5" fill-opacity="0.42"/><rect x="39" y="45" width="14" height="14" rx="1.5" fill="#4f8fa5" fill-opacity="0.65"/><rect x="23" y="61" width="14" height="14" rx="1.5" fill="#4f8fa5" fill-opacity="0.86"/><rect x="39" y="61" width="14" height="14" rx="1.5" fill="#4f8fa5" fill-opacity="0.86"/><rect x="23" y="77" width="14" height="14" rx="1.5" fill="#4f8fa5" fill-opacity="0.86"/><rect x="39" y="77" width="14" height="14" rx="1.5" fill="#4f8fa5" fill-opacity="0.86"/><path class="bracket" d="M19,44h-4v48h4 M57,44h4v48h-4"/><text x="38" y="121" text-anchor="middle" class="symbol">Qᵢ</text><text x="38" y="144" text-anchor="middle" class="shape">3 × 2</text></g><text x="89" y="75" text-anchor="middle" class="op">×</text><g class="matrix" data-rows="2" data-cols="3"><rect x="125" y="53" width="14" height="14" rx="1.5" fill="#ca8b4f" fill-opacity="0.42"/><rect x="141" y="53" width="14" height="14" rx="1.5" fill="#ca8b4f" fill-opacity="0.65"/><rect x="157" y="53" width="14" height="14" rx="1.5" fill="#ca8b4f" fill-opacity="0.86"/><rect x="125" y="69" width="14" height="14" rx="1.5" fill="#ca8b4f" fill-opacity="0.86"/><rect x="141" y="69" width="14" height="14" rx="1.5" fill="#ca8b4f" fill-opacity="0.86"/><rect x="157" y="69" width="14" height="14" rx="1.5" fill="#ca8b4f" fill-opacity="0.42"/><path class="bracket" d="M121,52h-4v32h4 M175,52h4v32h-4"/><text x="148" y="113" text-anchor="middle" class="symbol">Kᵍᵀ</text><text x="148" y="136" text-anchor="middle" class="shape">2 × 3</text></g><path class="arrow" d="M197,68H236" marker-end="url(#tip)"/><text x="374" y="52" text-anchor="middle" class="operation">缩放 · 因果遮罩 · softmax</text><text x="374" y="85" text-anchor="middle" class="shape">沿 Key 位置归一化</text><path class="arrow" d="M506,68H548" marker-end="url(#tip)"/><g class="matrix" data-rows="3" data-cols="3"><rect x="584" y="45" width="14" height="14" rx="1.5" fill="#bb6465" fill-opacity="0.42"/><rect x="584" y="61" width="14" height="14" rx="1.5" fill="#bb6465" fill-opacity="0.86"/><rect x="600" y="61" width="14" height="14" rx="1.5" fill="#bb6465" fill-opacity="0.86"/><rect x="584" y="77" width="14" height="14" rx="1.5" fill="#bb6465" fill-opacity="0.86"/><rect x="600" y="77" width="14" height="14" rx="1.5" fill="#bb6465" fill-opacity="0.86"/><rect x="616" y="77" width="14" height="14" rx="1.5" fill="#bb6465" fill-opacity="0.65"/><path class="bracket" d="M580,44h-4v48h4 M634,44h4v48h-4"/><text x="607" y="121" text-anchor="middle" class="symbol">Aᵢ</text><text x="607" y="144" text-anchor="middle" class="shape">3 × 3</text></g><text x="697" y="57" text-anchor="start" class="annotation">行：Query 位置</text><text x="697" y="86" text-anchor="start" class="annotation">列：Key 位置</text><text x="697" y="115" text-anchor="start" class="shape">未来位置的概率为 0</text></svg><path d="M34,569.0H1186" stroke="#e3e8e8"/><text x="34" y="609.0" text-anchor="start" class="shape">03</text><text x="34" y="640.0" text-anchor="start" class="operation">汇总 Value</text><text x="34" y="676.0" text-anchor="start" class="shape">按注意力概率对各位置的 Va</text><text x="34" y="701.0" text-anchor="start" class="shape">lue 加权求和，得到单个头</text><text x="34" y="726.0" text-anchor="start" class="shape">的输出。</text><svg x="286" y="579.0" width="900" height="140.0" viewBox="0 0 900 140"><defs><marker id="tip" viewBox="0 0 8 8" refX="7" refY="4" markerWidth="7" markerHeight="7" orient="auto"><path d="M1 1L7 4L1 7" fill="none" stroke="#8c9291" stroke-width="1.2"/></marker></defs><g class="matrix" data-rows="3" data-cols="3"><rect x="23" y="23" width="14" height="14" rx="1.5" fill="#bb6465" fill-opacity="0.42"/><rect x="23" y="39" width="14" height="14" rx="1.5" fill="#bb6465" fill-opacity="0.86"/><rect x="39" y="39" width="14" height="14" rx="1.5" fill="#bb6465" fill-opacity="0.86"/><rect x="23" y="55" width="14" height="14" rx="1.5" fill="#bb6465" fill-opacity="0.86"/><rect x="39" y="55" width="14" height="14" rx="1.5" fill="#bb6465" fill-opacity="0.86"/><rect x="55" y="55" width="14" height="14" rx="1.5" fill="#bb6465" fill-opacity="0.65"/><path class="bracket" d="M19,22h-4v48h4 M73,22h4v48h-4"/><text x="46" y="99" text-anchor="middle" class="symbol">Aᵢ</text><text x="46" y="122" text-anchor="middle" class="shape">3 × 3</text></g><text x="105" y="55" text-anchor="middle" class="op">×</text><g class="matrix" data-rows="3" data-cols="2"><rect x="141" y="23" width="14" height="14" rx="1.5" fill="#8a74b5" fill-opacity="0.42"/><rect x="157" y="23" width="14" height="14" rx="1.5" fill="#8a74b5" fill-opacity="0.65"/><rect x="141" y="39" width="14" height="14" rx="1.5" fill="#8a74b5" fill-opacity="0.86"/><rect x="157" y="39" width="14" height="14" rx="1.5" fill="#8a74b5" fill-opacity="0.86"/><rect x="141" y="55" width="14" height="14" rx="1.5" fill="#8a74b5" fill-opacity="0.86"/><rect x="157" y="55" width="14" height="14" rx="1.5" fill="#8a74b5" fill-opacity="0.86"/><path class="bracket" d="M137,22h-4v48h4 M175,22h4v48h-4"/><text x="156" y="99" text-anchor="middle" class="symbol">Vᵍ</text><text x="156" y="122" text-anchor="middle" class="shape">3 × 2</text></g><text x="218" y="55" text-anchor="middle" class="op">=</text><g class="matrix" data-rows="3" data-cols="2"><rect x="268" y="23" width="14" height="14" rx="1.5" fill="#4f8fa5" fill-opacity="0.42"/><rect x="284" y="23" width="14" height="14" rx="1.5" fill="#4f8fa5" fill-opacity="0.65"/><rect x="268" y="39" width="14" height="14" rx="1.5" fill="#4f8fa5" fill-opacity="0.86"/><rect x="284" y="39" width="14" height="14" rx="1.5" fill="#4f8fa5" fill-opacity="0.86"/><rect x="268" y="55" width="14" height="14" rx="1.5" fill="#4f8fa5" fill-opacity="0.86"/><rect x="284" y="55" width="14" height="14" rx="1.5" fill="#4f8fa5" fill-opacity="0.86"/><path class="bracket" d="M264,22h-4v48h4 M302,22h4v48h-4"/><text x="283" y="99" text-anchor="middle" class="symbol">Hᵢ</text><text x="283" y="122" text-anchor="middle" class="shape">3 × 2</text></g><text x="397" y="38" text-anchor="start" class="annotation">各 Query 头分别计算注意力概率。</text><text x="397" y="69" text-anchor="start" class="annotation">共享 K/V 的头仍有各自的 A 与 H。</text></svg><path d="M34,769.0H1186" stroke="#e3e8e8"/><text x="34" y="809.0" text-anchor="start" class="shape">04</text><text x="34" y="840.0" text-anchor="start" class="operation">拼接与输出</text><text x="34" y="876.0" text-anchor="start" class="shape">各头输出沿特征维拼接，再</text><text x="34" y="901.0" text-anchor="start" class="shape">由输出投影映射回 d 维。</text><svg x="286" y="779.0" width="900" height="208.0" viewBox="0 0 900 208"><defs><marker id="tip" viewBox="0 0 8 8" refX="7" refY="4" markerWidth="7" markerHeight="7" orient="auto"><path d="M1 1L7 4L1 7" fill="none" stroke="#8c9291" stroke-width="1.2"/></marker></defs><g class="matrix" data-rows="3" data-cols="8"><rect x="23" y="53" width="14" height="14" rx="1.5" fill="#4f8fa5" fill-opacity="0.42"/><rect x="39" y="53" width="14" height="14" rx="1.5" fill="#4f8fa5" fill-opacity="0.65"/><rect x="55" y="53" width="14" height="14" rx="1.5" fill="#4f8fa5" fill-opacity="0.86"/><rect x="71" y="53" width="14" height="14" rx="1.5" fill="#4f8fa5" fill-opacity="0.65"/><rect x="87" y="53" width="14" height="14" rx="1.5" fill="#4f8fa5" fill-opacity="0.42"/><rect x="103" y="53" width="14" height="14" rx="1.5" fill="#4f8fa5" fill-opacity="0.86"/><rect x="119" y="53" width="14" height="14" rx="1.5" fill="#4f8fa5" fill-opacity="0.86"/><rect x="135" y="53" width="14" height="14" rx="1.5" fill="#4f8fa5" fill-opacity="0.86"/><rect x="23" y="69" width="14" height="14" rx="1.5" fill="#4f8fa5" fill-opacity="0.86"/><rect x="39" y="69" width="14" height="14" rx="1.5" fill="#4f8fa5" fill-opacity="0.86"/><rect x="55" y="69" width="14" height="14" rx="1.5" fill="#4f8fa5" fill-opacity="0.42"/><rect x="71" y="69" width="14" height="14" rx="1.5" fill="#4f8fa5" fill-opacity="0.65"/><rect x="87" y="69" width="14" height="14" rx="1.5" fill="#4f8fa5" fill-opacity="0.42"/><rect x="103" y="69" width="14" height="14" rx="1.5" fill="#4f8fa5" fill-opacity="0.42"/><rect x="119" y="69" width="14" height="14" rx="1.5" fill="#4f8fa5" fill-opacity="0.42"/><rect x="135" y="69" width="14" height="14" rx="1.5" fill="#4f8fa5" fill-opacity="0.65"/><rect x="23" y="85" width="14" height="14" rx="1.5" fill="#4f8fa5" fill-opacity="0.86"/><rect x="39" y="85" width="14" height="14" rx="1.5" fill="#4f8fa5" fill-opacity="0.86"/><rect x="55" y="85" width="14" height="14" rx="1.5" fill="#4f8fa5" fill-opacity="0.65"/><rect x="71" y="85" width="14" height="14" rx="1.5" fill="#4f8fa5" fill-opacity="0.86"/><rect x="87" y="85" width="14" height="14" rx="1.5" fill="#4f8fa5" fill-opacity="0.86"/><rect x="103" y="85" width="14" height="14" rx="1.5" fill="#4f8fa5" fill-opacity="0.42"/><rect x="119" y="85" width="14" height="14" rx="1.5" fill="#4f8fa5" fill-opacity="0.86"/><rect x="135" y="85" width="14" height="14" rx="1.5" fill="#4f8fa5" fill-opacity="0.42"/><path class="bracket" d="M19,52h-4v48h4 M153,52h4v48h-4"/><text x="86" y="129" text-anchor="middle" class="symbol" style="font-size:17px">[H₁ | H₂ | H₃ | H₄]</text><text x="86" y="152" text-anchor="middle" class="shape">3 × 8</text></g><path d="M54,49v54" class="head-divider"/><path d="M86,49v54" class="head-divider"/><path d="M118,49v54" class="head-divider"/><text x="199" y="84" text-anchor="middle" class="op">×</text><g class="matrix" data-rows="8" data-cols="8"><rect x="249" y="13" width="14" height="14" rx="1.5" fill="#85898f" fill-opacity="0.42"/><rect x="265" y="13" width="14" height="14" rx="1.5" fill="#85898f" fill-opacity="0.65"/><rect x="281" y="13" width="14" height="14" rx="1.5" fill="#85898f" fill-opacity="0.86"/><rect x="297" y="13" width="14" height="14" rx="1.5" fill="#85898f" fill-opacity="0.65"/><rect x="313" y="13" width="14" height="14" rx="1.5" fill="#85898f" fill-opacity="0.42"/><rect x="329" y="13" width="14" height="14" rx="1.5" fill="#85898f" fill-opacity="0.86"/><rect x="345" y="13" width="14" height="14" rx="1.5" fill="#85898f" fill-opacity="0.86"/><rect x="361" y="13" width="14" height="14" rx="1.5" fill="#85898f" fill-opacity="0.86"/><rect x="249" y="29" width="14" height="14" rx="1.5" fill="#85898f" fill-opacity="0.86"/><rect x="265" y="29" width="14" height="14" rx="1.5" fill="#85898f" fill-opacity="0.86"/><rect x="281" y="29" width="14" height="14" rx="1.5" fill="#85898f" fill-opacity="0.42"/><rect x="297" y="29" width="14" height="14" rx="1.5" fill="#85898f" fill-opacity="0.65"/><rect x="313" y="29" width="14" height="14" rx="1.5" fill="#85898f" fill-opacity="0.42"/><rect x="329" y="29" width="14" height="14" rx="1.5" fill="#85898f" fill-opacity="0.42"/><rect x="345" y="29" width="14" height="14" rx="1.5" fill="#85898f" fill-opacity="0.42"/><rect x="361" y="29" width="14" height="14" rx="1.5" fill="#85898f" fill-opacity="0.65"/><rect x="249" y="45" width="14" height="14" rx="1.5" fill="#85898f" fill-opacity="0.86"/><rect x="265" y="45" width="14" height="14" rx="1.5" fill="#85898f" fill-opacity="0.86"/><rect x="281" y="45" width="14" height="14" rx="1.5" fill="#85898f" fill-opacity="0.65"/><rect x="297" y="45" width="14" height="14" rx="1.5" fill="#85898f" fill-opacity="0.86"/><rect x="313" y="45" width="14" height="14" rx="1.5" fill="#85898f" fill-opacity="0.86"/><rect x="329" y="45" width="14" height="14" rx="1.5" fill="#85898f" fill-opacity="0.42"/><rect x="345" y="45" width="14" height="14" rx="1.5" fill="#85898f" fill-opacity="0.86"/><rect x="361" y="45" width="14" height="14" rx="1.5" fill="#85898f" fill-opacity="0.42"/><rect x="249" y="61" width="14" height="14" rx="1.5" fill="#85898f" fill-opacity="0.65"/><rect x="265" y="61" width="14" height="14" rx="1.5" fill="#85898f" fill-opacity="0.65"/><rect x="281" y="61" width="14" height="14" rx="1.5" fill="#85898f" fill-opacity="0.65"/><rect x="297" y="61" width="14" height="14" rx="1.5" fill="#85898f" fill-opacity="0.65"/><rect x="313" y="61" width="14" height="14" rx="1.5" fill="#85898f" fill-opacity="0.86"/><rect x="329" y="61" width="14" height="14" rx="1.5" fill="#85898f" fill-opacity="0.42"/><rect x="345" y="61" width="14" height="14" rx="1.5" fill="#85898f" fill-opacity="0.42"/><rect x="361" y="61" width="14" height="14" rx="1.5" fill="#85898f" fill-opacity="0.86"/><rect x="249" y="77" width="14" height="14" rx="1.5" fill="#85898f" fill-opacity="0.65"/><rect x="265" y="77" width="14" height="14" rx="1.5" fill="#85898f" fill-opacity="0.65"/><rect x="281" y="77" width="14" height="14" rx="1.5" fill="#85898f" fill-opacity="0.42"/><rect x="297" y="77" width="14" height="14" rx="1.5" fill="#85898f" fill-opacity="0.86"/><rect x="313" y="77" width="14" height="14" rx="1.5" fill="#85898f" fill-opacity="0.42"/><rect x="329" y="77" width="14" height="14" rx="1.5" fill="#85898f" fill-opacity="0.86"/><rect x="345" y="77" width="14" height="14" rx="1.5" fill="#85898f" fill-opacity="0.86"/><rect x="361" y="77" width="14" height="14" rx="1.5" fill="#85898f" fill-opacity="0.86"/><rect x="249" y="93" width="14" height="14" rx="1.5" fill="#85898f" fill-opacity="0.65"/><rect x="265" y="93" width="14" height="14" rx="1.5" fill="#85898f" fill-opacity="0.42"/><rect x="281" y="93" width="14" height="14" rx="1.5" fill="#85898f" fill-opacity="0.65"/><rect x="297" y="93" width="14" height="14" rx="1.5" fill="#85898f" fill-opacity="0.42"/><rect x="313" y="93" width="14" height="14" rx="1.5" fill="#85898f" fill-opacity="0.86"/><rect x="329" y="93" width="14" height="14" rx="1.5" fill="#85898f" fill-opacity="0.65"/><rect x="345" y="93" width="14" height="14" rx="1.5" fill="#85898f" fill-opacity="0.86"/><rect x="361" y="93" width="14" height="14" rx="1.5" fill="#85898f" fill-opacity="0.42"/><rect x="249" y="109" width="14" height="14" rx="1.5" fill="#85898f" fill-opacity="0.86"/><rect x="265" y="109" width="14" height="14" rx="1.5" fill="#85898f" fill-opacity="0.86"/><rect x="281" y="109" width="14" height="14" rx="1.5" fill="#85898f" fill-opacity="0.65"/><rect x="297" y="109" width="14" height="14" rx="1.5" fill="#85898f" fill-opacity="0.65"/><rect x="313" y="109" width="14" height="14" rx="1.5" fill="#85898f" fill-opacity="0.65"/><rect x="329" y="109" width="14" height="14" rx="1.5" fill="#85898f" fill-opacity="0.65"/><rect x="345" y="109" width="14" height="14" rx="1.5" fill="#85898f" fill-opacity="0.65"/><rect x="361" y="109" width="14" height="14" rx="1.5" fill="#85898f" fill-opacity="0.86"/><rect x="249" y="125" width="14" height="14" rx="1.5" fill="#85898f" fill-opacity="0.65"/><rect x="265" y="125" width="14" height="14" rx="1.5" fill="#85898f" fill-opacity="0.65"/><rect x="281" y="125" width="14" height="14" rx="1.5" fill="#85898f" fill-opacity="0.42"/><rect x="297" y="125" width="14" height="14" rx="1.5" fill="#85898f" fill-opacity="0.65"/><rect x="313" y="125" width="14" height="14" rx="1.5" fill="#85898f" fill-opacity="0.65"/><rect x="329" y="125" width="14" height="14" rx="1.5" fill="#85898f" fill-opacity="0.65"/><rect x="345" y="125" width="14" height="14" rx="1.5" fill="#85898f" fill-opacity="0.65"/><rect x="361" y="125" width="14" height="14" rx="1.5" fill="#85898f" fill-opacity="0.65"/><path class="bracket" d="M245,12h-4v128h4 M379,12h4v128h-4"/><text x="312" y="169" text-anchor="middle" class="symbol">Wₒ</text><text x="312" y="192" text-anchor="middle" class="shape">8 × 8</text></g><text x="423" y="84" text-anchor="middle" class="op">=</text><g class="matrix" data-rows="3" data-cols="8"><rect x="473" y="53" width="14" height="14" rx="1.5" fill="#4f8fa5" fill-opacity="0.42"/><rect x="489" y="53" width="14" height="14" rx="1.5" fill="#4f8fa5" fill-opacity="0.65"/><rect x="505" y="53" width="14" height="14" rx="1.5" fill="#4f8fa5" fill-opacity="0.86"/><rect x="521" y="53" width="14" height="14" rx="1.5" fill="#4f8fa5" fill-opacity="0.65"/><rect x="537" y="53" width="14" height="14" rx="1.5" fill="#4f8fa5" fill-opacity="0.42"/><rect x="553" y="53" width="14" height="14" rx="1.5" fill="#4f8fa5" fill-opacity="0.86"/><rect x="569" y="53" width="14" height="14" rx="1.5" fill="#4f8fa5" fill-opacity="0.86"/><rect x="585" y="53" width="14" height="14" rx="1.5" fill="#4f8fa5" fill-opacity="0.86"/><rect x="473" y="69" width="14" height="14" rx="1.5" fill="#4f8fa5" fill-opacity="0.86"/><rect x="489" y="69" width="14" height="14" rx="1.5" fill="#4f8fa5" fill-opacity="0.86"/><rect x="505" y="69" width="14" height="14" rx="1.5" fill="#4f8fa5" fill-opacity="0.42"/><rect x="521" y="69" width="14" height="14" rx="1.5" fill="#4f8fa5" fill-opacity="0.65"/><rect x="537" y="69" width="14" height="14" rx="1.5" fill="#4f8fa5" fill-opacity="0.42"/><rect x="553" y="69" width="14" height="14" rx="1.5" fill="#4f8fa5" fill-opacity="0.42"/><rect x="569" y="69" width="14" height="14" rx="1.5" fill="#4f8fa5" fill-opacity="0.42"/><rect x="585" y="69" width="14" height="14" rx="1.5" fill="#4f8fa5" fill-opacity="0.65"/><rect x="473" y="85" width="14" height="14" rx="1.5" fill="#4f8fa5" fill-opacity="0.86"/><rect x="489" y="85" width="14" height="14" rx="1.5" fill="#4f8fa5" fill-opacity="0.86"/><rect x="505" y="85" width="14" height="14" rx="1.5" fill="#4f8fa5" fill-opacity="0.65"/><rect x="521" y="85" width="14" height="14" rx="1.5" fill="#4f8fa5" fill-opacity="0.86"/><rect x="537" y="85" width="14" height="14" rx="1.5" fill="#4f8fa5" fill-opacity="0.86"/><rect x="553" y="85" width="14" height="14" rx="1.5" fill="#4f8fa5" fill-opacity="0.42"/><rect x="569" y="85" width="14" height="14" rx="1.5" fill="#4f8fa5" fill-opacity="0.86"/><rect x="585" y="85" width="14" height="14" rx="1.5" fill="#4f8fa5" fill-opacity="0.42"/><path class="bracket" d="M469,52h-4v48h4 M603,52h4v48h-4"/><text x="536" y="129" text-anchor="middle" class="symbol">O</text><text x="536" y="152" text-anchor="middle" class="shape">3 × 8</text></g><text x="663" y="65" text-anchor="start" class="annotation">输出宽度为 d = 8</text><text x="663" y="94" text-anchor="start" class="shape">与残差流的宽度一致</text></svg><text x="34" y="1047.0" text-anchor="start" class="shape">维度：B = 1（省略批次轴），T = 3，d = 8，h = 4，h_kv = 2，d_h = 2。每格对应一个元素。</text><text x="34" y="1079.0" text-anchor="start" class="shape">对象：W 表示可学习权重，Q、K、V、H、O 表示中间张量。A 的每行是一组注意力概率，和为 1。色块深浅仅作示意。</text><text x="34" y="1111.0" text-anchor="start" class="shape">约定：头编号从 1 开始，g = ⌈i / 2⌉。Q、K 在匹配前应用 RoPE；M 在可见位置取 0，在未来位置取 −∞。图中省略偏置与 dropout。</text></svg>